<?xml version="1.0" encoding="utf-8"?>
<!-- Generator: Adobe Illustrator 25.1.0, SVG Export Plug-In . SVG Version: 6.00 Build 0)  -->
<svg version="1.1" id="Layer_1" xmlns="http://www.w3.org/2000/svg" xmlns:xlink="http://www.w3.org/1999/xlink" x="0px" y="0px"
	 viewBox="0 0 500 500" style="enable-background:new 0 0 500 500;" xml:space="preserve">
<style type="text/css">
	.st0{fill:#353635;}
</style>
<g>
	<g>
		<path class="st0" d="M250,500c-1.2,0-2.4-0.3-3.5-1L36,377.6c-2.2-1.3-3.5-3.6-3.5-6.1V128.5c0-2.5,1.4-4.9,3.5-6.1L246.4,0.9
			c2.2-1.3,4.9-1.3,7.1,0l210.4,121.5c2.2,1.3,3.5,3.6,3.5,6.1v242.9c0,2.5-1.4,4.9-3.5,6.1L253.5,499
			C252.4,499.7,251.2,500,250,500z M46.7,367.4L250,484.7l203.3-117.4V132.6L250,15.3L46.7,132.6V367.4z"/>
	</g>
	<g>
		<path class="st0" d="M250,469.7c-0.4,0-0.8-0.1-1.1-0.3L60.5,360.7c-0.7-0.4-1.1-1.1-1.1-1.9V141.2c0-0.8,0.4-1.5,1.1-1.9
			L248.9,30.6c0.7-0.4,1.5-0.4,2.2,0l188.4,108.8c0.7,0.4,1.1,1.1,1.1,1.9v217.5c0,0.8-0.4,1.5-1.1,1.9L251.1,469.4
			C250.7,469.6,250.3,469.7,250,469.7z M63.8,357.5L250,465l186.2-107.5v-215L250,35L63.8,142.5V357.5z"/>
	</g>
	<g>
		<path class="st0" d="M303,339.9h18.9v5h-70.1v-5h17.7V153.4h-17.7v-5h69c7.5,0,15.3,0.7,23.6,2.1c8.3,1.4,15.8,4,22.7,8
			c6.9,3.9,12.6,9.4,17.1,16.5c4.5,7.1,6.8,16.2,6.8,27.4c0,10.2-2,18.9-6,26.1c-4,7.2-9.1,13-15.3,17.4c-6.2,4.4-13.1,7.7-20.6,9.7
			c-7.6,2.1-15,3.1-22.3,3.1c-3.9,0-7.8-0.3-11.6-0.9c-3.8-0.6-7.7-2.3-11.6-5L303,339.9z M303.2,247.1c5.3,3.9,11.3,5.9,18,5.9
			c5.7,0,10.9-1.2,15.6-3.5c4.7-2.4,8.7-5.7,12.1-10c3.3-4.3,5.9-9.3,7.7-15c1.8-5.7,2.7-12,2.7-18.9c0-9.4-1.1-17.5-3.4-24.2
			c-2.3-6.7-5.6-12.1-9.9-16.4c-4.3-4.2-9.5-7.3-15.5-9.3c-6-2-12.6-2.9-19.9-2.9c-0.6,0-1.5,0.1-2.8,0.3c-1.3,0.2-2.7,0.4-4.3,0.6
			L303.2,247.1z"/>
	</g>
	<g>
		<path class="st0" d="M269.9,344.9h-61c-13.8,0-26.8-1.6-39.2-4.7c-12.4-3.1-23.2-8.5-32.6-16.1c-9.3-7.6-16.7-17.7-22.3-30.5
			c-5.5-12.8-8.3-28.7-8.3-47.7c0-18.7,2.6-34.2,7.8-46.7c5.2-12.5,12.3-22.5,21.2-29.9c8.9-7.5,19.4-12.8,31.2-16.1
			c11.9-3.2,24.6-4.9,38.2-4.9h64.8v5h-16.8v186.3h16.8V344.9z M218.3,339.6V153.3c-14.1,0-26,1.9-35.7,5.7
			c-9.6,3.8-17.4,9.7-23.3,17.5c-5.9,7.9-10.1,17.7-12.7,29.6c-2.6,11.9-3.8,25.9-3.8,42c0,13.2,1.4,25.3,4.1,36.5
			c2.8,11.2,6.9,20.9,12.5,29c5.6,8.2,12.7,14.5,21.2,19.2c8.5,4.6,18.6,6.9,30.2,6.9L218.3,339.6z"/>
	</g>
</g>
</svg>
