<?xml version="1.0" encoding="utf-8"?>
<!-- Generator: Adobe Illustrator 25.0.1, SVG Export Plug-In . SVG Version: 6.00 Build 0)  -->
<svg version="1.1" id="Layer_1" xmlns="http://www.w3.org/2000/svg" xmlns:xlink="http://www.w3.org/1999/xlink" x="0px" y="0px"
	 viewBox="0 0 992.1 671.3" style="enable-background:new 0 0 992.1 671.3;" xml:space="preserve">
<style type="text/css">
	.st0{fill:#353635;}
</style>
<g>
	<path class="st0" d="M494.8,351.2c-0.9,0-1.7-0.2-2.5-0.7l-147.6-85.2c-1.5-0.9-2.5-2.5-2.5-4.3V90.7c0-1.8,0.9-3.4,2.5-4.3
		L492.3,1.2c1.5-0.9,3.4-0.9,5,0l147.6,85.2c1.5,0.9,2.5,2.5,2.5,4.3v170.4c0,1.8-0.9,3.4-2.5,4.3l-147.6,85.2
		C496.5,351,495.7,351.2,494.8,351.2z M352.2,258.2l142.6,82.3l142.6-82.3V93.5L494.8,11.2L352.2,93.5V258.2z"/>
</g>
<g>
	<path class="st0" d="M707.9,293.4c-10.5,0-19.2-2.9-26.2-8.6c-7-5.7-10.5-12.9-10.5-21.5c0-8.7,3.6-16,10.9-22
		c7.3-6,16.4-8.9,27.2-8.9c18,0,36,9.3,53.9,28c9.5-6.9,18.4-14.4,26.5-22.6l11-11.1c38.8-38.9,68.3-58.3,88.4-58.3
		c8.7,0,16.1,2.1,22.1,6.4c6,4.3,9.1,9.5,9.1,15.6c0,8.8-7.3,16-21.7,21.6c0.3-2,0.5-3.7,0.5-4.8c0-5-2-9.3-6.1-12.8
		c-4-3.5-9-5.2-14.9-5.2c-7.2,0-17.2,3.9-29.8,11.6c-12.6,7.7-24.7,17.3-36.2,28.8l-11.3,11.3c27.2-11,48.7-16.4,64.4-16.4
		c27.9,0,52.1,7.4,72.7,22.3c20.5,14.9,30.8,32.5,30.8,52.8c0,15.9-11.1,25.9-33.4,30c1.1-4.3,1.7-8.9,1.7-13.7
		c0-21.2-7.6-38.8-22.8-53c-15.2-14.2-34.2-21.3-56.9-21.3c-13.1,0-28.3,2.6-45.6,7.7c-17.3,5.2-30.8,11.2-40.7,18l12.8,13.4
		c29,30.6,49.4,45.9,61.4,45.9c4.5,0,8.4-1.7,11.8-5.1c3.3-3.4,5-7.4,5-12.2c0-7.5-3.2-14-9.4-19.4c-6.3-5.4-13.8-8.1-22.4-8.1
		c-1.4,0-3.3,0.2-5.7,0.6c8.4-10,17.2-15,26.3-15c7.1,0,13.2,3,18.2,8.9c5,5.9,7.5,13.2,7.5,21.8c0,11.8-5.1,22.3-15.4,31.5
		c-10.2,9.2-22,13.8-35.4,13.8c-9.4,0-18.6-3-27.6-8.9c-9.1-5.9-22.8-17.9-41-35.9l-15.4-14.8C729.7,290.1,718.5,293.4,707.9,293.4z
		 M701.5,257.9c-4.5,0-7.9,0.8-10.1,2.4c-2.2,1.6-3.3,4-3.3,7.3c0,4.6,1.9,8.1,5.6,10.4c3.7,2.3,9.3,3.5,16.8,3.5
		c6.1,0,13.8-1.8,23.1-5.3C721.8,264,711.1,257.9,701.5,257.9z"/>
</g>
<g>
	<path class="st0" d="M249.4,283.7L234,298.5c-18.3,18-31.9,30-41,35.9c-9.1,5.9-18.3,8.9-27.6,8.9c-13.3,0-25.1-4.6-35.4-13.8
		c-10.2-9.2-15.4-19.7-15.4-31.5c0-8.6,2.5-15.8,7.5-21.8c5-5.9,11.1-8.9,18.2-8.9c9.1,0,17.9,5,26.3,15c-2.4-0.4-4.3-0.6-5.7-0.6
		c-8.6,0-16.1,2.7-22.4,8.1c-6.3,5.4-9.4,11.9-9.4,19.4c0,4.7,1.7,8.8,5,12.2c3.4,3.4,7.3,5.1,11.8,5.1c12,0,32.4-15.3,61.4-45.9
		l12.8-13.4c-9.9-6.9-23.4-12.9-40.7-18c-17.3-5.2-32.5-7.7-45.6-7.7c-22.7,0-41.6,7.1-56.9,21.3c-15.2,14.2-22.8,31.8-22.8,53
		c0,4.8,0.6,9.4,1.7,13.7c-22.2-4.1-33.4-14.1-33.4-30c0-20.3,10.3-37.9,30.8-52.8c20.5-14.9,44.8-22.3,72.7-22.3
		c15.7,0,37.2,5.5,64.4,16.4L179,229.5c-11.5-11.5-23.6-21.1-36.2-28.8c-12.6-7.7-22.5-11.6-29.8-11.6c-5.9,0-10.8,1.7-14.9,5.2
		c-4,3.5-6.1,7.8-6.1,12.8c0,1.2,0.2,2.8,0.5,4.8c-14.5-5.6-21.7-12.8-21.7-21.6c0-6.1,3-11.3,9.1-15.6c6-4.3,13.4-6.4,22.1-6.4
		c20.1,0,49.5,19.4,88.3,58.3l11,11.1c8.1,8.2,16.9,15.7,26.5,22.6c17.9-18.7,35.8-28,53.9-28c10.8,0,19.9,3,27.2,8.9
		c7.3,6,10.9,13.3,10.9,22c0,8.6-3.5,15.8-10.5,21.5c-7,5.7-15.7,8.6-26.2,8.6C272.5,293.4,261.3,290.1,249.4,283.7z M257.5,276.1
		c9.3,3.5,17.1,5.3,23.1,5.3c7.5,0,13.1-1.2,16.8-3.5c3.7-2.3,5.6-5.8,5.6-10.4c0-3.2-1.1-5.6-3.3-7.3c-2.2-1.6-5.6-2.4-10.1-2.4
		C279.9,257.9,269.2,264,257.5,276.1z"/>
</g>
<g>
	<path class="st0" d="M659.1,378c0-5.9,4.8-10.7,10.7-10.7c5.9,0,10.7,4.8,10.7,10.7c0,5.9-4.8,10.7-10.7,10.7
		C663.9,388.7,659.1,383.9,659.1,378z"/>
</g>
<g>
	<path class="st0" d="M314,378c0-5.9,4.8-10.7,10.7-10.7c5.9,0,10.7,4.8,10.7,10.7c0,5.9-4.8,10.7-10.7,10.7
		C318.8,388.7,314,383.9,314,378z"/>
</g>
<g>
	<rect x="-0.2" y="423" class="st0" width="989.9" height="6.2"/>
</g>
<g>
	<rect x="-0.2" y="557.2" class="st0" width="989.9" height="6.2"/>
</g>
<g>
	<path class="st0" d="M640.8,410.9c-12.3,0-21.5-1.4-27.5-4.2c-6.1-2.8-10.5-7.7-13.3-14.7c-2.2,3.3-4.6,5.8-7.4,7.5
		c-2.8,1.6-5.8,2.5-9.1,2.5c-5.2,0-9.7-2-13.4-6.1c-3.7-4.1-5.5-9-5.5-14.7c0-4.6,1.4-10.4,4.3-17.2l6.5,3c-1.1,2.6-1.6,4.8-1.6,6.7
		c0,3.1,0.7,5.4,2.1,6.9c1.4,1.5,3.5,2.3,6.3,2.3c2.8,0,5.2-1,7.1-3c1.9-2,2.9-4.5,2.9-7.5c0-6.2-3.1-11.7-9.3-16.5
		c-6.2-4.8-13.2-7.2-21.1-7.2c-8.2,0-15.2,2.7-21,8.2s-8.7,12.1-8.7,19.8c0,7.8,2.3,14.2,6.9,19.1c4.6,4.9,10.8,7.6,18.6,8.1v7.2
		h-2.4c-13.2,0-23.8-3.3-31.9-10c-8.1-6.7-12.2-15.4-12.2-26.2c0-10.7,3.9-19.7,11.8-27.2c7.8-7.4,17.4-11.1,28.7-11.1
		c13,0,26.7,5.6,41.1,16.9l4.4,3.5c8.8,6.9,15.6,10.4,20.5,10.4c2.7,0,5.1-1,7.1-3c2-2,3-4.3,3-7c0-3.2-1.3-6-3.8-8.4
		c-2.6-2.3-5.6-3.5-9.2-3.5c-4.3,0-8.6,2.2-12.7,6.6l-5.6-4.7c6.3-9.9,15.3-14.9,26.9-14.9c7.6,0,13.9,2.2,18.9,6.5
		c5,4.3,7.5,9.8,7.5,16.4c0,4.7-1.6,8.8-4.9,12.3c-3.3,3.5-7.6,5.7-13.1,6.8c5.9,2.5,10.2,7.8,12.8,15.8l1.2,3.6
		c1.3,4,2.7,6.6,4.1,8c1.4,1.4,3.5,2.1,6.3,2.1v7.2H640.8z M633.7,404.3c-3.6-1.4-6.7-4.4-9.3-8.9l-1.2-2.1
		c-5.9-10.5-12.4-16.4-19.5-17.7C605.3,394.7,615.3,404.3,633.7,404.3z"/>
</g>
<g>
	<path class="st0" d="M336.2,409.8l0.1-7.2c2.8,0,4.8-0.6,6.3-2c1.4-1.4,2.8-4,4.2-8l1.2-3.6c2.7-8,7.1-13.2,13-15.6
		c-5.5-1.1-9.8-3.5-13-7c-3.2-3.5-4.8-7.6-4.7-12.3c0.1-6.6,2.7-12,7.7-16.3c5-4.2,11.4-6.3,19-6.2c11.6,0.2,20.5,5.3,26.6,15.3
		l-5.6,4.6c-4-4.5-8.2-6.7-12.6-6.8c-3.6-0.1-6.7,1.1-9.2,3.4c-2.6,2.3-3.9,5.1-4,8.3c0,2.7,0.9,5.1,2.9,7.1c2,2,4.3,3,7,3.1
		c4.9,0.1,11.8-3.3,20.6-10.1l4.5-3.4c14.5-11.1,28.3-16.5,41.3-16.4c11.3,0.2,20.8,4,28.5,11.6c7.7,7.5,11.5,16.7,11.4,27.3
		c-0.2,10.8-4.3,19.5-12.5,26c-8.2,6.5-18.9,9.7-32.1,9.5l-2.4,0l0.1-7.2c7.8-0.4,14.1-3,18.7-7.9c4.7-4.8,7-11.2,7.1-19
		c0.1-7.7-2.7-14.4-8.4-19.9c-5.7-5.6-12.7-8.4-20.9-8.5c-7.9-0.1-15,2.2-21.2,6.9c-6.2,4.7-9.4,10.2-9.5,16.4
		c0,2.9,0.9,5.4,2.8,7.5c1.9,2.1,4.2,3.1,7,3.1c2.8,0,4.9-0.7,6.4-2.2c1.4-1.5,2.2-3.8,2.2-6.9c0-1.9-0.5-4.1-1.5-6.7l6.6-2.9
		c2.8,6.9,4.2,12.7,4.1,17.3c-0.1,5.7-2,10.6-5.7,14.6c-3.7,4-8.2,6-13.4,5.9c-3.3,0-6.4-0.9-9.1-2.6c-2.7-1.7-5.2-4.2-7.3-7.6
		c-2.9,7-7.4,11.8-13.5,14.5c-6.1,2.7-15.3,4-27.6,3.8L336.2,409.8z M388.8,375.3c-7.1,1.2-13.7,7.1-19.7,17.5l-1.3,2.1
		c-2.6,4.5-5.8,7.4-9.4,8.8C376.9,403.8,387,394.4,388.8,375.3z"/>
</g>
<g>
	<path class="st0" d="M351.3,592.6c12.3,0,21.5,1.4,27.5,4.2c6.1,2.8,10.5,7.7,13.3,14.7c2.2-3.3,4.6-5.8,7.4-7.5
		c2.8-1.6,5.8-2.5,9.1-2.5c5.2,0,9.7,2,13.4,6.1c3.7,4.1,5.5,9,5.5,14.7c0,4.6-1.4,10.4-4.3,17.2l-6.5-3c1.1-2.6,1.6-4.8,1.6-6.7
		c0-3.1-0.7-5.4-2.1-6.9c-1.4-1.5-3.5-2.3-6.3-2.3c-2.8,0-5.2,1-7.1,3c-1.9,2-2.9,4.5-2.9,7.5c0,6.2,3.1,11.7,9.3,16.5
		c6.2,4.8,13.2,7.2,21.1,7.2c8.2,0,15.2-2.7,21-8.2c5.8-5.5,8.7-12.1,8.7-19.8c0-7.8-2.3-14.2-6.9-19.1c-4.6-4.9-10.8-7.6-18.6-8.1
		v-7.2h2.4c13.2,0,23.8,3.3,31.9,10c8.1,6.7,12.2,15.4,12.2,26.2c0,10.7-3.9,19.7-11.8,27.2c-7.8,7.4-17.4,11.2-28.7,11.2
		c-13,0-26.7-5.6-41.1-16.9l-4.4-3.5c-8.8-6.9-15.6-10.4-20.5-10.4c-2.7,0-5.1,1-7.1,3c-2,2-3,4.3-3,7c0,3.2,1.3,6,3.8,8.4
		c2.6,2.3,5.6,3.5,9.2,3.5c4.3,0,8.6-2.2,12.7-6.6l5.6,4.7c-6.3,9.9-15.3,14.9-26.9,14.9c-7.6,0-13.9-2.2-18.9-6.5
		c-5-4.3-7.5-9.8-7.5-16.4c0-4.7,1.6-8.8,4.9-12.3c3.3-3.5,7.6-5.7,13.1-6.8c-5.9-2.5-10.2-7.8-12.8-15.8l-1.2-3.6
		c-1.3-4-2.7-6.6-4.1-8c-1.4-1.4-3.5-2.1-6.3-2.1v-7.2H351.3z M358.4,599.2c3.6,1.4,6.7,4.4,9.3,8.9l1.2,2.1
		c5.9,10.5,12.4,16.4,19.5,17.7C386.8,608.8,376.8,599.2,358.4,599.2z"/>
</g>
<g>
	<path class="st0" d="M655.8,593.7l-0.1,7.2c-2.8,0-4.8,0.6-6.3,2c-1.4,1.4-2.8,4-4.2,8l-1.2,3.6c-2.7,8-7.1,13.2-13,15.6
		c5.5,1.1,9.8,3.5,13,7c3.2,3.5,4.8,7.6,4.7,12.3c-0.1,6.6-2.7,12-7.7,16.3c-5,4.2-11.4,6.3-19,6.2c-11.6-0.2-20.5-5.3-26.6-15.3
		l5.6-4.6c4,4.5,8.2,6.7,12.6,6.8c3.6,0.1,6.7-1.1,9.2-3.4c2.6-2.3,3.9-5.1,4-8.3c0-2.7-0.9-5.1-2.9-7.1c-2-2-4.3-3-7-3.1
		c-4.9-0.1-11.8,3.3-20.6,10.1l-4.5,3.4c-14.5,11.1-28.3,16.5-41.3,16.4c-11.3-0.2-20.8-4-28.5-11.6c-7.7-7.5-11.5-16.7-11.4-27.3
		c0.2-10.8,4.3-19.5,12.5-26c8.2-6.5,18.9-9.7,32.1-9.5l2.4,0l-0.1,7.2c-7.8,0.4-14.1,3-18.7,7.9c-4.7,4.8-7,11.2-7.2,19
		c-0.1,7.7,2.7,14.4,8.4,19.9c5.7,5.6,12.7,8.4,20.9,8.5c7.9,0.1,15-2.2,21.2-6.9c6.2-4.7,9.4-10.2,9.5-16.4c0-2.9-0.9-5.4-2.8-7.5
		c-1.9-2.1-4.2-3.1-7-3.1c-2.8,0-4.9,0.7-6.4,2.2c-1.4,1.5-2.2,3.8-2.2,6.9c0,1.9,0.5,4.1,1.5,6.7l-6.6,2.9
		c-2.8-6.9-4.2-12.7-4.1-17.3c0.1-5.7,2-10.6,5.7-14.6c3.7-4,8.2-6,13.4-5.9c3.3,0,6.4,0.9,9.1,2.6c2.7,1.7,5.2,4.2,7.3,7.6
		c2.9-7,7.4-11.8,13.5-14.5c6.1-2.7,15.3-4,27.6-3.8L655.8,593.7z M603.2,628.3c7.1-1.2,13.7-7.1,19.7-17.5l1.3-2.1
		c2.6-4.5,5.8-7.4,9.4-8.8C615.2,599.7,605,609.1,603.2,628.3z"/>
</g>
<g>
	<path class="st0" d="M505.6,661c0,5.9-4.8,10.7-10.7,10.7c-5.9,0-10.7-4.8-10.7-10.7c0-5.9,4.8-10.7,10.7-10.7
		C500.8,650.4,505.6,655.1,505.6,661z"/>
</g>
<g>
	<path class="st0" d="M494.8,330c-0.3,0-0.5-0.1-0.8-0.2l-132.1-76.3c-0.5-0.3-0.8-0.8-0.8-1.3V99.6c0-0.6,0.3-1.1,0.8-1.3L494,22
		c0.5-0.3,1.1-0.3,1.5,0l132.1,76.3c0.5,0.3,0.8,0.8,0.8,1.3v152.6c0,0.6-0.3,1.1-0.8,1.3l-132.1,76.3
		C495.3,329.9,495.1,330,494.8,330z M364.2,251.2l130.6,75.4l130.6-75.4V100.5L494.8,25.1l-130.6,75.4V251.2z"/>
</g>
<g>
	<rect x="690.7" y="375.8" class="st0" width="301.2" height="6.2"/>
</g>
<g>
	<rect x="-0.2" y="375.8" class="st0" width="301.2" height="6.2"/>
</g>
<g>
	<path class="st0" d="M3.6,453.1h23.8c5.4,0,10.4,0.6,15.3,1.8c4.8,1.2,9,3.3,12.7,6.3c3.6,2.9,6.5,6.9,8.7,11.9
		c2.1,5,3.2,11.2,3.2,18.6c0,7.3-1,13.3-3,18.2c-2,4.9-4.8,8.7-8.3,11.7c-3.5,2.9-7.5,5-12.2,6.3c-4.6,1.3-9.6,1.9-14.9,1.9H3.6v-2
		h6.5v-72.5H3.6V453.1z M23.7,455.2v72.5c5.5,0,10.1-0.7,13.9-2.2c3.7-1.5,6.8-3.8,9.1-6.8c2.3-3.1,3.9-6.9,4.9-11.5
		c1-4.6,1.5-10.1,1.5-16.4c0-5.1-0.5-9.9-1.6-14.2c-1.1-4.4-2.7-8.1-4.9-11.3c-2.2-3.2-4.9-5.7-8.3-7.5c-3.3-1.8-7.3-2.7-11.8-2.7
		L23.7,455.2z"/>
	<path class="st0" d="M105.8,451.6c4.4,0,8.4,1.2,12,3.5c3.6,2.3,6.8,5.4,9.4,9.2c2.6,3.8,4.7,8.1,6.1,12.9
		c1.5,4.8,2.2,9.6,2.2,14.4c0,4.9-0.7,9.7-2.2,14.4c-1.5,4.7-3.5,8.9-6.1,12.6c-2.6,3.7-5.8,6.7-9.4,9c-3.6,2.3-7.6,3.4-12,3.4
		c-4.4,0-8.5-1.2-12.2-3.5c-3.7-2.3-6.8-5.4-9.4-9.2c-2.6-3.8-4.6-8.2-6.1-13c-1.5-4.8-2.2-9.7-2.2-14.7c0-4.7,0.8-9.5,2.4-14.1
		c1.6-4.7,3.7-8.8,6.4-12.5c2.7-3.7,5.9-6.7,9.5-9C97.8,452.8,101.7,451.6,105.8,451.6z M106,453.5c-2.5,0-4.6,0.6-6.3,1.9
		c-1.8,1.3-3.3,2.9-4.5,5.1c-1.2,2.1-2.2,4.5-2.9,7.1c-0.7,2.6-1.3,5.4-1.7,8.2c-0.4,2.8-0.7,5.5-0.9,8.3c-0.2,2.7-0.2,5.1-0.2,7.3
		c0,2.2,0.1,4.7,0.2,7.4c0.1,2.7,0.4,5.5,0.7,8.3c0.4,2.8,0.9,5.5,1.6,8.2c0.7,2.7,1.6,5.1,2.8,7.2c1.2,2.1,2.7,3.8,4.4,5.1
		c1.8,1.3,3.9,1.9,6.4,1.9c2.5,0,4.7-0.6,6.4-2c1.8-1.3,3.2-3,4.4-5.1c1.1-2.1,2-4.5,2.6-7.2c0.6-2.7,1.1-5.5,1.4-8.3
		c0.3-2.8,0.5-5.5,0.6-8.3c0.1-2.7,0.1-5.1,0.1-7.3c0-1.9-0.1-4.2-0.2-6.8c-0.1-2.6-0.4-5.3-0.7-8c-0.4-2.8-0.9-5.5-1.5-8.3
		c-0.7-2.8-1.5-5.2-2.7-7.3c-1.1-2.1-2.5-3.9-4.1-5.2C110.3,454.2,108.3,453.5,106,453.5z"/>
	<path class="st0" d="M142,526.9v0.7h-0.5L142,526.9z M163.3,529.7v-2h-0.8c-0.9,0-1.9,0-2.8,0c-1,0-1.9-0.1-2.8-0.3
		c-0.9-0.2-1.6-0.6-2.2-1.1c-0.6-0.5-1-1.2-1-2.1c-0.2-0.6-0.2-1.4-0.2-2.3s0-2.5,0-4.7V465l0.9-0.2l22.5,63.7
		c3.7-10.4,7.3-20.8,10.8-31.2c3.6-10.4,7.1-20.8,10.6-31.2l0.9,0.2l-0.1,61.3h-6.4v2.1h26.5v-2H213v-72.7h6.2v-2h-18.8l-17.9,51.8
		l-18-51.8h-22.2v2h8.4c0.2,0.2,0.3,1.2,0.4,3.3c0.1,2,0.2,4.6,0.2,7.9c0,3.2,0.1,6.9,0.1,11c0,4.1,0.1,8.2,0.1,12.5
		c0,3.9,0,7.7,0,11.5c0,3.8,0,7.2-0.1,10.3c0,3.1-0.1,5.7-0.2,7.9c-0.1,2.2-0.2,3.6-0.2,4.3c-0.2,2.1-1.1,3.3-2.6,3.6
		c-1.5,0.3-3.2,0.4-5.1,0.3H142v2.1H163.3z"/>
	<path class="st0" d="M220.9,527.8c1.7,0,3.1-0.1,4.1-0.3c1.1-0.2,2-0.6,2.6-1.3s1.3-1.5,1.7-2.7c0.5-1.2,1-2.7,1.6-4.5
		c3.3-11.2,6.6-22.3,10-33.5c3.4-11.1,6.7-22.3,10.1-33.5h3.9l24.5,75.8h5.1v2h-27.4v-2h7.7l-7.3-23.1h-20l-0.8,2.3
		c-0.4,1.1-0.8,2.6-1.4,4.4c-0.5,1.8-1.1,3.5-1.5,5.3c-0.5,1.8-0.9,3.4-1.3,4.8c-0.4,1.5-0.6,2.5-0.6,3c0,0.9,0.4,1.6,1.1,2.1
		c0.7,0.5,1.6,0.8,2.6,1c1,0.2,2,0.3,3,0.3c1,0,1.9,0,2.5,0h0.2v2h-20.3V527.8z M238,502.7h18.8l-9.6-30.1L238,502.7z"/>
	<path class="st0" d="M286.6,453.1h28.6v2h-8.3v72.7h8.3v2h-28.6v-2h7.2v-72.7h-7.2V453.1z"/>
	<path class="st0" d="M320.8,527.8c2.3,0,4.1-0.1,5.4-0.2c1.3-0.1,2.2-0.5,2.8-1.1c0.6-0.6,0.9-1.6,1-3c0.1-1.3,0.2-3.3,0.2-5.8
		v-61.1l-1.5-1.5h-7.9v-2h23.1l33.3,54.6v-43.2c0-2.4-0.1-4.3-0.2-5.6c-0.1-1.3-0.4-2.2-0.9-2.8s-1.1-0.9-2-1
		c-0.9-0.1-2.1-0.1-3.6-0.1H368v-2h20.8v2h-2.6c-1.5,0-2.8,0-3.7,0.1c-0.9,0.1-1.6,0.4-2.1,1c-0.5,0.6-0.7,1.5-0.9,2.8
		c-0.1,1.3-0.2,3.2-0.2,5.6v65.7h-5.7l-41.2-68.2v53.6c0,3.1,0,5.4,0.1,7.1c0.1,1.6,0.4,2.8,1,3.6c0.6,0.7,1.5,1.1,2.8,1.3
		c1.3,0.1,3.2,0.2,5.6,0.2v2h-21.1V527.8z"/>
	<path class="st0" d="M413,527.4h11.1c3.5,0,6.8-0.1,9.8-0.3c3-0.2,5.6-0.9,7.9-2.2c2.2-1.3,4-3.3,5.3-6c1.3-2.8,2-6.7,2-11.8h2
		v22.6h-57.6v-2h5.7v-72.7h-5.7v-2h57.5L451,472h-2c-0.6-4.2-1.7-7.4-3.3-9.7c-1.6-2.3-3.5-3.9-5.7-4.9c-2.3-1-4.8-1.6-7.7-1.7
		c-2.9-0.1-6-0.2-9.2-0.2H413v33.9h3c2.4,0,4.5-0.1,6.3-0.2c1.8-0.2,3.3-0.6,4.5-1.5c1.2-0.8,2.1-2.2,2.8-4c0.6-1.8,1-4.3,1-7.5h1.8
		V505h-1.8c-0.1-2.9-0.4-5.2-0.9-6.9c-0.5-1.7-1.2-3-2.1-3.9c-0.9-0.9-2-1.5-3.3-1.7c-1.3-0.3-2.8-0.4-4.5-0.4H413V527.4z"/>
	<path class="st0" d="M501.6,453.1h23.8c5.4,0,10.4,0.6,15.3,1.8c4.8,1.2,9,3.3,12.7,6.3c3.6,2.9,6.5,6.9,8.7,11.9
		c2.1,5,3.2,11.2,3.2,18.6c0,7.3-1,13.3-3,18.2c-2,4.9-4.8,8.7-8.3,11.7c-3.5,2.9-7.5,5-12.2,6.3c-4.6,1.3-9.6,1.9-14.9,1.9h-25.3
		v-2h6.5v-72.5h-6.5V453.1z M521.7,455.2v72.5c5.5,0,10.1-0.7,13.9-2.2c3.7-1.5,6.8-3.8,9.1-6.8c2.3-3.1,3.9-6.9,4.9-11.5
		c1-4.6,1.5-10.1,1.5-16.4c0-5.1-0.5-9.9-1.6-14.2c-1.1-4.4-2.7-8.1-4.9-11.3c-2.2-3.2-4.9-5.7-8.3-7.5c-3.3-1.8-7.3-2.7-11.8-2.7
		L521.7,455.2z"/>
	<path class="st0" d="M591.9,527.4h11.1c3.5,0,6.8-0.1,9.8-0.3c3-0.2,5.6-0.9,7.9-2.2c2.2-1.3,4-3.3,5.3-6s2-6.7,2-11.8h2v22.6
		h-57.6v-2h5.7v-72.7h-5.7v-2h57.5l0.1,18.8h-2c-0.6-4.2-1.7-7.4-3.3-9.7c-1.6-2.3-3.5-3.9-5.7-4.9c-2.3-1-4.8-1.6-7.7-1.7
		c-2.9-0.1-6-0.2-9.2-0.2h-10.1v33.9h3c2.4,0,4.5-0.1,6.3-0.2c1.8-0.2,3.3-0.6,4.5-1.5c1.2-0.8,2.1-2.2,2.8-4c0.6-1.8,1-4.3,1-7.5
		h1.8V505h-1.8c-0.1-2.9-0.4-5.2-0.9-6.9c-0.5-1.7-1.2-3-2.1-3.9c-0.9-0.9-2-1.5-3.3-1.7c-1.3-0.3-2.8-0.4-4.5-0.4h-6.8V527.4z"/>
	<path class="st0" d="M700.5,527.8h7.3v2h-27.3v-2h6.9v-72.7h-6.9v-2h26.9c2.9,0,6,0.3,9.2,0.8c3.2,0.5,6.2,1.6,8.8,3.1
		c2.7,1.5,4.9,3.7,6.7,6.4c1.8,2.8,2.6,6.3,2.6,10.7c0,4-0.8,7.4-2.4,10.2c-1.6,2.8-3.6,5.1-6,6.8c-2.4,1.7-5.1,3-8,3.8
		c-2.9,0.8-5.8,1.2-8.7,1.2c-1.5,0-3-0.1-4.5-0.3c-1.5-0.2-3-0.9-4.5-2L700.5,527.8z M700.6,491.6c2.1,1.5,4.4,2.3,7,2.3
		c2.2,0,4.2-0.5,6.1-1.4c1.8-0.9,3.4-2.2,4.7-3.9c1.3-1.7,2.3-3.6,3-5.9c0.7-2.2,1-4.7,1-7.3c0-3.7-0.4-6.8-1.3-9.4
		c-0.9-2.6-2.2-4.7-3.8-6.4c-1.7-1.6-3.7-2.9-6-3.6c-2.3-0.8-4.9-1.1-7.7-1.1c-0.2,0-0.6,0-1.1,0.1c-0.5,0.1-1.1,0.2-1.7,0.2
		L700.6,491.6z"/>
	<path class="st0" d="M736,527.8c1.7,0,3.1-0.1,4.1-0.3c1.1-0.2,2-0.6,2.6-1.3s1.3-1.5,1.7-2.7c0.5-1.2,1-2.7,1.6-4.5
		c3.3-11.2,6.6-22.3,10-33.5c3.4-11.1,6.7-22.3,10.1-33.5h3.9l24.5,75.8h5v2h-27.4v-2h7.7l-7.3-23.1h-20l-0.8,2.3
		c-0.4,1.1-0.8,2.6-1.4,4.4c-0.5,1.8-1.1,3.5-1.5,5.3c-0.5,1.8-0.9,3.4-1.3,4.8c-0.4,1.5-0.6,2.5-0.6,3c0,0.9,0.4,1.6,1.1,2.1
		c0.7,0.5,1.6,0.8,2.6,1c1,0.2,2,0.3,3,0.3s1.9,0,2.5,0h0.2v2H736V527.8z M753.1,502.7h18.8l-9.6-30.1L753.1,502.7z"/>
	<path class="st0" d="M801.7,453.1h28.6v2H822v72.7h8.3v2h-28.6v-2h7.2v-72.7h-7.2V453.1z"/>
	<path class="st0" d="M855.5,527.8h7v2h-25.9v-2h6.3v-72.7h-6.3v-2h33.2c2.5,0,5,0.3,7.5,0.9c2.4,0.6,4.6,1.6,6.5,3
		c1.9,1.4,3.4,3.3,4.6,5.6c1.2,2.3,1.8,5.3,1.8,8.8c0,2.7-0.4,5-1.2,7c-0.8,2-1.9,3.7-3.3,5.1c-1.4,1.4-3,2.6-4.8,3.5
		c-1.8,0.9-3.8,1.6-5.9,2.1v1.3c3.2,0.8,5.7,2.2,7.5,4.1c1.8,1.9,3.2,4,4.1,6.4c0.9,2.4,1.5,4.9,1.7,7.5c0.2,2.6,0.4,5.1,0.5,7.5
		c0.1,1.7,0.2,3.3,0.3,4.8c0.1,1.5,0.3,2.8,0.6,3.9c0.3,1.1,0.8,2,1.4,2.6c0.6,0.7,1.5,1,2.5,1c0.7,0,1.3-0.1,2-0.3
		c0.6-0.2,1.2-0.4,1.8-0.6c0.1,0,0.2,0,0.2-0.1l0.7,1.7c-1.3,0.6-2.6,1-3.8,1.3c-1.3,0.2-2.5,0.3-3.8,0.3c-3.4,0-6-0.5-7.9-1.5
		c-1.9-1-3.4-2.4-4.4-4.1c-1-1.8-1.7-3.9-2.1-6.3c-0.3-2.4-0.6-5.2-0.9-8.1c-0.1-0.9-0.2-1.9-0.2-2.9c-0.1-1-0.2-2-0.3-3.1
		c-0.4-3.3-1.2-5.9-2.4-7.7c-1.2-1.8-2.6-3.2-4.4-4.1c-1.7-0.9-3.7-1.4-5.8-1.6c-2.1-0.2-4.4-0.3-6.7-0.3V527.8z M855.5,455.1V489
		h3.7c2.1,0,4.3-0.3,6.4-0.9c2.1-0.6,4-1.6,5.6-2.9c1.6-1.3,2.9-3.1,3.9-5.2c1-2.1,1.5-4.7,1.5-7.7c0-3.4-0.5-6.3-1.4-8.5
		c-0.9-2.2-2.2-4-3.8-5.2c-1.6-1.3-3.5-2.1-5.6-2.6c-2.1-0.5-4.4-0.7-6.9-0.7H855.5z"/>
	<path class="st0" d="M903.9,453.1h28.6v2h-8.3v72.7h8.3v2h-28.6v-2h7.2v-72.7h-7.2V453.1z"/>
	<path class="st0" d="M941.6,502.4h1.7c0.3,3.9,0.9,7.4,1.8,10.6c0.9,3.2,2.2,5.9,4,8.2c1.7,2.3,3.9,4.1,6.5,5.3
		c2.6,1.3,5.7,1.9,9.3,1.9c2.2,0,4.2-0.3,6-1c1.8-0.7,3.3-1.7,4.5-2.9c1.2-1.3,2-2.8,2.4-4.5c0.4-1.8,0.4-3.7-0.2-5.7
		c-0.6-2.2-2.1-4-4.4-5.4c-2.3-1.4-5.1-2.8-8.2-4.2c-2.7-1.2-5.4-2.6-8.2-4c-2.8-1.5-5.4-3.3-7.7-5.5c-2.4-2.2-4.3-4.8-5.8-7.9
		c-1.5-3.1-2.2-6.8-2.2-11.2c0-0.7,0-1.5,0.1-2.3c0-0.8,0.1-1.7,0.3-2.5c0.8-6.2,2.9-10.8,6.3-13.8c3.4-3,7.9-4.7,13.7-5
		c3.2-0.1,5.9,0.4,8,1.5c2.1,1.1,3.9,2.1,5.3,3.1c1.3,1.1,2.4,1.6,3.2,1.6c1.1,0,1.7-0.5,2-1.6c0.2-1,0.3-2,0.3-2.9h1.8v23.1h-2
		c-0.5-3.4-1.3-6.4-2.2-9.2c-0.9-2.8-2.1-5.2-3.6-7.1c-1.5-2-3.3-3.5-5.5-4.5c-2.1-1.1-4.7-1.6-7.7-1.6c-2,0-3.9,0.3-5.7,0.8
		c-1.8,0.5-3.4,1.4-4.8,2.5c-1.3,1.1-2.4,2.5-3.1,4.3c-0.7,1.8-1,3.9-0.9,6.3c0.2,2.1,0.7,3.8,1.6,5.3c0.9,1.5,2.1,2.8,3.6,3.9
		c1.5,1.1,3.1,2.1,4.9,2.9c1.8,0.8,3.7,1.6,5.7,2.4c2.5,1,5.1,2.1,7.6,3.4c2.6,1.3,4.9,2.8,7.1,4.7c2.2,1.9,4,4.2,5.5,6.8
		c1.5,2.7,2.4,5.9,2.8,9.8c0.2,3.5-0.3,6.7-1.3,9.6c-1,2.9-2.5,5.3-4.4,7.4c-1.9,2.1-4.1,3.7-6.8,4.8c-2.6,1.1-5.5,1.7-8.6,1.7
		c-3,0-5.6-0.4-7.9-1.3c-2.3-0.9-4.3-1.7-6-2.6c-0.9-0.5-1.8-1-2.6-1.3s-1.6-0.5-2.4-0.5c-0.8,0-1.4,0.6-1.8,1.8
		c-0.3,1.2-0.6,2.3-0.6,3.2h-1.7V502.4z"/>
</g>
<g>
	<path class="st0" d="M532,238.9h13.2v3.5H496v-3.5h12.4V108.1H496v-3.5h48.4c5.2,0,10.8,0.5,16.5,1.4c5.8,1,11.1,2.8,15.9,5.6
		c4.8,2.8,8.8,6.6,12,11.6c3.2,5,4.8,11.4,4.8,19.2c0,7.2-1.4,13.3-4.2,18.3c-2.8,5-6.4,9.1-10.8,12.2c-4.3,3.1-9.2,5.4-14.5,6.8
		c-5.3,1.4-10.5,2.2-15.6,2.2c-2.8,0-5.5-0.2-8.2-0.6c-2.7-0.4-5.4-1.6-8.2-3.5L532,238.9z M532.2,173.8c3.7,2.8,7.9,4.1,12.6,4.1
		c4,0,7.6-0.8,11-2.5c3.3-1.7,6.1-4,8.5-7c2.3-3,4.1-6.5,5.4-10.5c1.2-4,1.9-8.4,1.9-13.2c0-6.6-0.8-12.3-2.4-17
		c-1.6-4.7-3.9-8.5-6.9-11.5c-3-3-6.7-5.1-10.9-6.5c-4.2-1.4-8.9-2.1-14-2.1c-0.4,0-1.1,0.1-2,0.2c-0.9,0.1-1.9,0.3-3,0.4
		L532.2,173.8z"/>
</g>
<g>
	<path class="st0" d="M508.8,242.4H466c-9.6,0-18.8-1.1-27.5-3.3c-8.7-2.2-16.3-6-22.8-11.3c-6.5-5.3-11.7-12.4-15.6-21.4
		c-3.9-9-5.8-20.1-5.8-33.5c0-13.1,1.8-24,5.5-32.8c3.7-8.8,8.6-15.7,14.9-21c6.3-5.2,13.6-9,21.9-11.3c8.3-2.3,17.3-3.4,26.8-3.4
		h45.5v3.5H497v130.7h11.8V242.4z M472.6,238.7V108c-9.9,0-18.3,1.3-25,4c-6.8,2.7-12.2,6.8-16.3,12.3c-4.1,5.5-7.1,12.4-8.9,20.8
		c-1.8,8.3-2.7,18.2-2.7,29.5c0,9.2,1,17.8,2.9,25.6c1.9,7.9,4.9,14.6,8.8,20.4c3.9,5.7,8.9,10.2,14.9,13.4c6,3.2,13.1,4.9,21.2,4.9
		L472.6,238.7z"/>
</g>
</svg>
